<svg xmlns="http://www.w3.org/2000/svg" xmlns:xlink="http://www.w3.org/1999/xlink" contentStyleType="text/css" data-diagram-type="CLASS" height="109px" preserveAspectRatio="none" style="width:149px;height:109px;background:#FFFFFF;" version="1.1" viewBox="0 0 149 109" width="149px" zoomAndPan="magnify"><defs/><g><!--class SampleFile--><g class="entity" data-entity="SampleFile" data-source-line="2" data-uid="ent0002" id="entity_SampleFile"><rect fill="#F1F1F1" height="88.8594" rx="2.5" ry="2.5" style="stroke:#181818;stroke-width:0.5;" width="128.04" x="7" y="7"/><ellipse cx="30.5957" cy="27.1328" fill="#ADD1B2" rx="11" ry="11" style="stroke:#181818;stroke-width:1;"/><path d="M33.5645,32.7734 Q32.9863,33.0703 32.3457,33.2109 Q31.7051,33.3672 31.002,33.3672 Q28.502,33.3672 27.1738,31.7266 Q25.8613,30.0703 25.8613,26.9453 Q25.8613,23.8203 27.1738,22.1641 Q28.502,20.5078 31.002,20.5078 Q31.7051,20.5078 32.3457,20.6641 Q33.002,20.8203 33.5645,21.1172 L33.5645,23.8359 Q32.9395,23.2578 32.3457,22.9922 Q31.752,22.7109 31.127,22.7109 Q29.7832,22.7109 29.0957,23.7891 Q28.4082,24.8516 28.4082,26.9453 Q28.4082,29.0391 29.0957,30.1172 Q29.7832,31.1797 31.127,31.1797 Q31.752,31.1797 32.3457,30.9141 Q32.9395,30.6328 33.5645,30.0547 L33.5645,32.7734 Z " fill="#000000"/><text fill="#000000" font-family="sans-serif" font-size="12" font-style="italic" lengthAdjust="spacing" textLength="40.6348" x="64.6577" y="23.1387">&#171;UML&#187;</text><text fill="#000000" font-family="sans-serif" font-size="14" lengthAdjust="spacing" textLength="76.9385" x="46.5059" y="38.9639">SampleFile</text><line style="stroke:#181818;stroke-width:0.5;" x1="8" x2="134.04" y1="47.2656" y2="47.2656"/><text fill="#000000" font-family="sans-serif" font-size="14" lengthAdjust="spacing" textLength="109.1152" x="13" y="64.2607">Sample uml file</text><line style="stroke:#181818;stroke-width:1;" x1="8" x2="134.04" y1="71.5625" y2="71.5625"/><text fill="#000000" font-family="sans-serif" font-size="14" lengthAdjust="spacing" textLength="116.04" x="13" y="88.5576">for generate svg</text></g><!--SRC=[Iyv9B2vM24xCBSX9TSlCILMmiGdrzR6pKwZcKW02Y8H2QMwEGXfG5YocgmkcqlAB5D9JyrAB4ajI5OhBqhbgkG00]--></g></svg>